<svg xmlns="http://www.w3.org/2000/svg" xmlns:xlink="http://www.w3.org/1999/xlink" viewBox="0 0 118 118"><defs><style>.cls-1{fill:url(#未命名的渐变_21);}.cls-2{fill:url(#未命名的渐变_8);}.cls-3{fill:url(#未命名的渐变_6);}.cls-4{fill:#f9d705;}.cls-5{fill:none;}</style><radialGradient id="未命名的渐变_21" cx="59" cy="59" r="59" gradientUnits="userSpaceOnUse"><stop offset="0" stop-color="#f9d701"/><stop offset="0.07" stop-color="#f9d701" stop-opacity="0.91"/><stop offset="0.34" stop-color="#f9d701" stop-opacity="0.59"/><stop offset="0.57" stop-color="#f9d701" stop-opacity="0.34"/><stop offset="0.76" stop-color="#f9d701" stop-opacity="0.15"/><stop offset="0.91" stop-color="#f9d701" stop-opacity="0.04"/><stop offset="1" stop-color="#f9d701" stop-opacity="0"/></radialGradient><linearGradient id="未命名的渐变_8" x1="59.06" y1="68.5" x2="84.23" y2="68.5" gradientUnits="userSpaceOnUse"><stop offset="0" stop-color="#f9b204"/><stop offset="1" stop-color="#ffaa23"/></linearGradient><linearGradient id="未命名的渐变_6" x1="33.77" y1="68.5" x2="59.06" y2="68.5" gradientUnits="userSpaceOnUse"><stop offset="0" stop-color="#ffb532"/><stop offset="1" stop-color="#ffc117"/></linearGradient></defs><g id="图层_2" data-name="图层 2"><g id="图层_1-2" data-name="图层 1"><circle class="cls-1" cx="59" cy="59" r="59"/><path class="cls-2" d="M65,73.74a28.25,28.25,0,0,0,3.88-3.6A21,21,0,0,0,84.23,49.92V42.34H76.07V39h-17V98H77.92V93.55H73.79C70.61,89,66.52,86,62,85v-9Zm11.07-22.4V46.05h4.45v3.87A17.28,17.28,0,0,1,73,64.21,28.2,28.2,0,0,0,76.07,51.34Z"/><path class="cls-3" d="M41.93,39v3.34H33.77v7.58A21,21,0,0,0,49.12,70.14,28.25,28.25,0,0,0,53,73.74l3,2.32v9c-4.55.94-8.64,4-11.82,8.53H40.08V98h19V39ZM37.48,49.92V46.05h4.45v5.29a28.2,28.2,0,0,0,3.12,12.87A17.28,17.28,0,0,1,37.48,49.92Z"/><polygon class="cls-4" points="59 44.03 61.46 47.84 65.84 49 62.98 52.52 63.23 57.04 59 55.41 54.77 57.04 55.02 52.52 52.16 49 56.54 47.84 59 44.03"/><path class="cls-5" d="M80.52,49.92V46.05H76.07v5.29A28.2,28.2,0,0,1,73,64.21,17.28,17.28,0,0,0,80.52,49.92Z"/><path class="cls-5" d="M41.93,46.05H37.48v3.87a17.28,17.28,0,0,0,7.57,14.29,28.2,28.2,0,0,1-3.12-12.87Z"/></g></g></svg>