<svg xmlns="http://www.w3.org/2000/svg" xmlns:xlink="http://www.w3.org/1999/xlink" viewBox="0 0 50.47 59"><defs><style>.cls-1{fill:url(#未命名的渐变_8);}.cls-2{fill:url(#未命名的渐变_6);}.cls-3{fill:#f9d705;}.cls-4{fill:none;}</style><linearGradient id="未命名的渐变_8" x1="25.29" y1="29.5" x2="50.47" y2="29.5" gradientUnits="userSpaceOnUse"><stop offset="0" stop-color="#f9b204"/><stop offset="1" stop-color="#ffaa23"/></linearGradient><linearGradient id="未命名的渐变_6" y1="29.5" x2="25.29" y2="29.5" gradientUnits="userSpaceOnUse"><stop offset="0" stop-color="#ffb532"/><stop offset="1" stop-color="#ffc117"/></linearGradient></defs><g id="图层_2" data-name="图层 2"><g id="图层_1-2" data-name="图层 1"><path class="cls-1" d="M31.23,34.74a28.25,28.25,0,0,0,3.88-3.6A21,21,0,0,0,50.47,10.92V3.34H42.3V0h-17V59H44.16V54.55H40C36.85,50,32.75,47,28.2,46v-9ZM42.3,12.34V7.05h4.45v3.87a17.3,17.3,0,0,1-7.56,14.29A28.32,28.32,0,0,0,42.3,12.34Z"/><path class="cls-2" d="M8.16,0V3.34H0v7.58A21,21,0,0,0,15.35,31.14a28.25,28.25,0,0,0,3.88,3.6l3,2.32v9c-4.55.94-8.64,4-11.82,8.53H6.31V59h19V0ZM3.71,10.92V7.05H8.16v5.29a28.2,28.2,0,0,0,3.12,12.87A17.28,17.28,0,0,1,3.71,10.92Z"/><polygon class="cls-3" points="25.23 5.04 27.69 8.84 32.07 10 29.22 13.52 29.46 18.04 25.23 16.41 21.01 18.04 21.25 13.52 18.4 10 22.77 8.84 25.23 5.04"/><path class="cls-4" d="M46.75,10.92V7.05H42.3v5.29a28.32,28.32,0,0,1-3.11,12.87A17.3,17.3,0,0,0,46.75,10.92Z"/><path class="cls-4" d="M8.16,7.05H3.71v3.87a17.28,17.28,0,0,0,7.57,14.29A28.2,28.2,0,0,1,8.16,12.34Z"/></g></g></svg>