<svg xmlns="http://www.w3.org/2000/svg" viewBox="0 0 145.83 177.96"><defs><style>.a{fill:#ffc200;}.b{fill:#7d4b07;}.c{fill:#e22b14;}</style></defs><title>资源 1</title><path d="M135.58,78.06a6.26,6.26,0,0,1,6.25,6.25v83.4a6.27,6.27,0,0,1-6.25,6.25H102.76a6.26,6.26,0,0,1-6.24-6.25V84.31a6.25,6.25,0,0,1,6.24-6.25h32.82m0-4H102.76A10.27,10.27,0,0,0,92.52,84.31v83.4A10.28,10.28,0,0,0,102.76,178h32.82a10.28,10.28,0,0,0,10.25-10.25V84.31a10.28,10.28,0,0,0-10.25-10.25Z"/><path d="M72.82,135a6.26,6.26,0,0,1,6.24,6.25v26.43A6.26,6.26,0,0,1,72.82,174H10.25A6.26,6.26,0,0,1,4,167.71V141.28A6.26,6.26,0,0,1,10.25,135H72.82m0-4H10.25A10.28,10.28,0,0,0,0,141.28v26.43A10.28,10.28,0,0,0,10.25,178H72.82a10.28,10.28,0,0,0,10.24-10.25V141.28A10.28,10.28,0,0,0,72.82,131Z"/><path d="M34.56,126h3.35A44.48,44.48,0,0,1,68.16,83.93c.87-.29,1.75-.56,2.64-.8l3.14,10.2,6.49-11.68,1.89-3.4A47.81,47.81,0,0,0,34.56,126Z"/><text/><path d="M28.67,2.69H21L20,0,18.2.26q.47,1.22.9,2.43H10.38v1.4H28.67Z"/><path d="M15,14.72A39.77,39.77,0,0,1,9.6,18.57l.89,1.36a53,53,0,0,0,5.56-4.11Z"/><path d="M23.23,8.08C24,7,24.78,6,25.49,4.93L24,4.42c-.85,1.25-1.73,2.47-2.62,3.66h-5l1.08-.46c-.7-1-1.47-2.09-2.29-3.18L13.69,5C14.46,6,15.2,7,15.91,8.08H9.37V9.51h9.56v2.92H10.19v1.4h8.74v3.74A2,2,0,0,1,18.55,19a1.77,1.77,0,0,1-1.31.37l-2.33-.07a12.93,12.93,0,0,1,.3,1.59q1.42,0,2.52,0a3.09,3.09,0,0,0,2.2-.74,3.51,3.51,0,0,0,.61-2.32V13.83h8.31v-1.4H20.54V9.51h9.13V8.08Z"/><path d="M22.73,16q2.93,1.92,5.61,3.81l.94-1.31-5.61-3.69Z"/><path d="M35.58,21.52a2.51,2.51,0,0,0,1.08-1.13,3.59,3.59,0,0,0,.3-1.61h-1.1V16.56H38.2v2a4.07,4.07,0,0,1-.61,2.24,3.41,3.41,0,0,1-1.68,1.35Z"/><path d="M56.49.51,54.86.09A37.4,37.4,0,0,1,50,10.72q.28,1,.54,1.92A37.12,37.12,0,0,0,53,8.84V21.1h1.59V5.64A47.53,47.53,0,0,0,56.49.51Z"/><path d="M57.5,9.11a35.07,35.07,0,0,0,2.44-4.32h8.7L67.19,8.27c.52.13,1,.27,1.52.42l1.57-4V3.29H60.6c.4-.93.77-1.88,1.1-2.87L60.07.14a28.71,28.71,0,0,1-3.84,7.94A15.45,15.45,0,0,1,57.5,9.11Z"/><path d="M62.78,17.75A1.71,1.71,0,0,1,62.43,19a1.84,1.84,0,0,1-1.22.33L59,19.23a15,15,0,0,1,.29,1.58h2.49a2.85,2.85,0,0,0,2-.7A3,3,0,0,0,64.39,18V6.59H62.78Z"/><path d="M67.56,9.84l-1.44.46q1.6,3.72,3.13,7.5l1.54-.56C69.71,14.78,68.64,12.31,67.56,9.84Z"/><path d="M59.25,9.74a47.34,47.34,0,0,1-3.18,7.38c.53.22,1,.45,1.45.68a63.87,63.87,0,0,0,3.18-7.57Z"/><path d="M88.31,17.68h1.38V12.24H83.43v6.5h1.38V17.68Zm0-4.2v2.94h-3.5V13.48Z"/><path d="M78.31,3.92c-.85-1.26-1.74-2.49-2.66-3.71L74.41,1Q75.84,3,77,4.81Z"/><path d="M78.62,14l-1.69,2.1V6.89H73.48v1.5h2v8.52A2.33,2.33,0,0,1,75,18.32l1,1.09c.2-.29.46-.64.77-1,.75-.92,1.53-1.86,2.34-2.81C78.9,15.11,78.76,14.6,78.62,14Z"/><polygon points="82.54 8.95 82.54 10.21 90.69 10.21 90.69 8.95 87.33 8.95 87.33 6.63 90.18 6.63 90.18 5.4 87.33 5.4 87.33 3.34 85.95 3.34 85.95 5.4 83.05 5.4 83.05 6.63 85.95 6.63 85.95 8.95 82.54 8.95"/><path d="M80.16,1.33v9.11a27,27,0,0,1-.45,5.91,12.3,12.3,0,0,1-1.84,4c.48.27.95.53,1.4.8a15,15,0,0,0,1.89-4.4,31.92,31.92,0,0,0,.47-6.35V2.66h10v15A2,2,0,0,1,91.25,19a1.89,1.89,0,0,1-1.33.35l-2.26-.07c.12.51.24,1,.35,1.51.82,0,1.65,0,2.47,0a2.9,2.9,0,0,0,2-.68,3.34,3.34,0,0,0,.56-2.17V1.33Z"/><path d="M117.4,19.34A29.17,29.17,0,0,1,110,16.59a17.67,17.67,0,0,0,5.09-6.19V8.78h-6.21V4.35H115l-.42,2.85,1.52.16.56-4.49h-7.73V.07h-1.57v2.8H99.22V9.44a28,28,0,0,1-.33,4.72,12.92,12.92,0,0,1-2.12,5.58c.39.45.76.9,1.12,1.33a15.89,15.89,0,0,0,2.5-6.21,26.39,26.39,0,0,0,.41-4.6H103l-.67.37a16.77,16.77,0,0,0,4.88,6,33.49,33.49,0,0,1-7.29,3.08c.31.55.59,1.07.84,1.57a36.88,36.88,0,0,0,7.86-3.65,31.84,31.84,0,0,0,8,3.37C116.87,20.41,117.13,19.87,117.4,19.34Zm-10.05-15V8.78h-6.54V4.35Zm-3.45,5.91h9.5a15.57,15.57,0,0,1-4.79,5.42A15.4,15.4,0,0,1,103.9,10.26Z"/><rect x="132.65" y="4.32" width="7.73" height="1.43"/><path d="M137.53,3.78c-.25-1.19-.53-2.42-.86-3.66L135.13.3c.31,1.27.61,2.53.91,3.79Z"/><path d="M134.45,16.4l1.33-.23c-.48-2.85-1-5.71-1.45-8.58l-1.28.24Q133.74,12.12,134.45,16.4Z"/><path d="M137.56,18.46q1.08-5.07,2.22-10.7l-1.41-.26q-1,5.76-2.09,11h-4.54v1.42h9.06V18.46Z"/><path d="M121.13,19h1.36V17.1h3.6V2.24h-5ZM124.78,3.6V15.75h-2.29V3.6Z"/><path d="M132.42,11.38c0-.5-.06-1-.07-1.52l-2,.57V5.82H132V4.42h-1.71V.19h-1.37V4.42h-2.06v1.4h2.06v5c-.8.22-1.59.46-2.39.67l.19,1.66,2.2-.68v5.45a1.6,1.6,0,0,1-.26,1,1.19,1.19,0,0,1-.91.28l-1.43-.05c.1.53.18,1.05.26,1.57h1.75a2,2,0,0,0,1.52-.61,2.78,2.78,0,0,0,.44-1.75V12Z"/><path d="M35.89,49.11H37.4V45.32h8.88v.82a1.61,1.61,0,0,1-.39,1.21,2.1,2.1,0,0,1-1.29.33c-.89,0-1.79,0-2.71-.07a9.24,9.24,0,0,1,.3,1.33h3a2.94,2.94,0,0,0,2-.68,2.77,2.77,0,0,0,.63-2V38.34H35.89Zm1.51-4.89v-1.8h8.88v1.8Zm8.88-4.72v1.8H37.4V39.5Z"/><path d="M32.52,45.72V35.42H28.74V37H31v9.32a1.67,1.67,0,0,1-.1.63,3.06,3.06,0,0,1-.42.63l.94,1.19c.32-.36.61-.65.84-.89.81-.77,1.7-1.58,2.66-2.4-.12-.55-.24-1.1-.35-1.66C33.92,44.43,33.22,45.08,32.52,45.72Z"/><path d="M33.83,32.15C33,31,32,29.78,31,28.5l-1.21.84q1.38,1.85,2.76,3.72Z"/><polygon points="42.59 35.63 42.59 33.97 48.36 33.97 48.36 32.85 42.59 32.85 42.59 31.19 49.02 31.19 49.02 30.07 42.59 30.07 42.59 28.08 41.07 28.08 41.07 30.07 34.86 30.07 34.86 31.19 41.07 31.19 41.07 32.85 35.3 32.85 35.3 33.97 41.07 33.97 41.07 35.63 34.32 35.63 34.32 36.77 49.37 36.77 49.37 35.63 42.59 35.63"/><path d="M58.17,39.81h2.5v-1.4h-2.5V34.25H56.68v4.16H54.23c.71-1.89,1.36-3.79,2-5.7h4.67V31.33H56.63c.32-1,.65-2,.94-3.06L56,28.13c-.3,1.11-.6,2.17-.9,3.2H52.29v1.38h2.37c-.64,2.06-1.3,4-2,5.65v1.45h4V43l-4.58.53.16,1.51,4.42-.56v4.65h1.49V44.31l3-.37c0-.48,0-1,.07-1.45l-3.11.36Z"/><path d="M72.73,37.12v-1.4H65.38c.24-1,.47-2,.7-3h6.16V31.37H66.38c.22-1,.43-2.06.62-3.13l-1.56,0c-.2,1.08-.4,2.14-.62,3.17h-3v1.38h2.73c-.23,1-.46,2-.7,3H61v1.4h2.52c-.26,1-.53,1.91-.81,2.83v1.42h7.15c-1,1.44-2,2.8-3,4.12q-2-1.18-4-2.39L62,44.34q4,2.35,7.92,4.91l.87-1.34-2.66-1.63q1.75-2.36,3.48-4.81V40H64.22c.28-.93.55-1.89.81-2.87Z"/><path d="M93.36,34.69h1.51V29.23H77.77v7.63a32.48,32.48,0,0,1-.51,6.62,14.69,14.69,0,0,1-1.87,4.43c.42.39.83.8,1.22,1.22a15.54,15.54,0,0,0,2.1-4.74,30.86,30.86,0,0,0,.63-7.06V34.69Zm0-4.11v2.76h-14V30.58Z"/><path d="M96,42.21H91.7v-3H95V37.85H91.23c.62-.82,1.21-1.62,1.75-2.39L91.44,35c-.58.89-1.24,1.83-2,2.83H85.42l.58-.17c-.63-.93-1.26-1.84-1.92-2.71l-1.49.49c.61.78,1.2,1.57,1.75,2.39H80.67v1.33h3.22v2.64a2.51,2.51,0,0,1,0,.39H79.76v1.36h4a6.11,6.11,0,0,1-.39,1.49,7.22,7.22,0,0,1-3.17,3.16c.45.39.83.75,1.14,1.07a7,7,0,0,0,4-5.72h4.83v5.51H91.7V43.57H96Zm-10.55,0a2.83,2.83,0,0,0,0-.3V39.18h4.72v3Z"/><path d="M106.17,76h26a0,0,0,0,1,0,0v5.76A1.24,1.24,0,0,1,130.94,83H107.41a1.24,1.24,0,0,1-1.24-1.24V76A0,0,0,0,1,106.17,76Z"/><path d="M-6.5,151.46h26a0,0,0,0,1,0,0v5.76a1.24,1.24,0,0,1-1.24,1.24H-5.26a1.24,1.24,0,0,1-1.24-1.24v-5.76A0,0,0,0,1-6.5,151.46Z" transform="translate(-148.46 161.46) rotate(-90)"/><circle class="a" cx="123.56" cy="40.71" r="16.75"/><ellipse class="b" cx="118.44" cy="39.48" rx="1.91" ry="2.75"/><path class="b" d="M112,37c-.24-.24,0-2.16,1.91-3.83s4.31-1.68,4.31-1.2c0,.24-2.39,1.2-3.35,2.16S112.22,37.21,112,37Z"/><path class="b" d="M134.77,37.81c.2-.38-1.28-2.08-4-2.64s-4.81.75-4.52,1.22c.14.23,2.79,0,4.24.23C132.53,37,134.4,38.5,134.77,37.81Z"/><path class="b" d="M125.38,41c.27.82,2.39-.47,3.35-.47s2.63,1.43,3.11.71-1.43-2.39-3.35-2.39S125.14,40.32,125.38,41Z"/><path class="b" d="M128.59,50.47a2.72,2.72,0,0,0-.59-.55,8.42,8.42,0,0,0-1.23-.7c-.37-.17-.75-.32-1.12-.47a7.1,7.1,0,0,0,.95-.4,4.1,4.1,0,0,0,1.13-.78,1.56,1.56,0,0,0,.4-.7.78.78,0,0,0,0-.22v-.11l0-.12A1,1,0,0,0,128,46a1.82,1.82,0,0,0-.53-.54,3.77,3.77,0,0,0-.59-.32,7.35,7.35,0,0,0-1.2-.4,13.67,13.67,0,0,0-2.45-.36c.78.24,1.56.49,2.31.79a7.52,7.52,0,0,1,1.07.51,4.13,4.13,0,0,1,.46.32,1.17,1.17,0,0,1,.3.35c.1.2,0,.42-.23.64a3,3,0,0,1-.91.56c-.7.29-2.4,1.26-2.4,1.26.82.28,1.77.9,2.56,1.25a7.46,7.46,0,0,1,1.13.57,1.62,1.62,0,0,1,.41.32s0,.07,0,0,0,0,0,0l0,.07a1.47,1.47,0,0,1-.41.35,3.7,3.7,0,0,1-.55.31,9.73,9.73,0,0,1-1.19.52c-.41.16-.83.3-1.26.43a9.35,9.35,0,0,1-1.29.32,6.11,6.11,0,0,0,1.35,0,12.51,12.51,0,0,0,1.34-.23,12.27,12.27,0,0,0,1.31-.39,5.44,5.44,0,0,0,.65-.3,2.38,2.38,0,0,0,.64-.47.82.82,0,0,0,.07-1.09Z"/><path class="c" d="M134.87,54.3c-.16-3.21-4.15-4.58-2.35-8.59a2.84,2.84,0,0,1,4-1.59,2.42,2.42,0,0,1,1.57,3l0,0a2.42,2.42,0,0,1,3.27-.81,2.86,2.86,0,0,1,1.48,4.06c-1.8,4-5.48,1.94-8,4Z"/></svg>